<mxfile host="app.diagrams.net" agent="Mozilla/5.0 (X11; Linux x86_64; rv:123.0) Gecko/20100101 Firefox/123.0" version="24.8.6">
  <diagram name="Página-1" id="ECYBjc4-T5F1NcXpzfX9">
    <mxGraphModel dx="1674" dy="750" grid="1" gridSize="10" guides="1" tooltips="1" connect="1" arrows="1" fold="1" page="1" pageScale="1" pageWidth="827" pageHeight="1169" math="0" shadow="0">
      <root>
        <mxCell id="0" />
        <mxCell id="1" parent="0" />
        <mxCell id="-6UULbU7St-G_a3xMBeo-3" value="" style="group;" parent="1" vertex="1" connectable="0">
          <mxGeometry x="60" y="20" width="750" height="662" as="geometry" />
        </mxCell>
        <mxCell id="-6UULbU7St-G_a3xMBeo-1" value="" style="whiteSpace=wrap;html=1;aspect=fixed;" parent="-6UULbU7St-G_a3xMBeo-3" vertex="1">
          <mxGeometry x="70" y="32" width="598" height="598" as="geometry" />
        </mxCell>
        <mxCell id="tbuorbMZUSvYoukiROc6-5" style="edgeStyle=orthogonalEdgeStyle;rounded=0;orthogonalLoop=1;jettySize=auto;html=1;exitX=1;exitY=0.3333333333333333;exitDx=0;exitDy=0;exitPerimeter=0;entryX=0;entryY=0.5;entryDx=0;entryDy=0;" edge="1" parent="-6UULbU7St-G_a3xMBeo-3" source="iN0uDsX3OjaOKZK2iHJ_-34" target="iN0uDsX3OjaOKZK2iHJ_-35">
          <mxGeometry relative="1" as="geometry" />
        </mxCell>
        <mxCell id="tbuorbMZUSvYoukiROc6-6" style="edgeStyle=orthogonalEdgeStyle;rounded=0;orthogonalLoop=1;jettySize=auto;html=1;exitX=0.5;exitY=0.5;exitDx=0;exitDy=0;exitPerimeter=0;entryX=0;entryY=0.5;entryDx=0;entryDy=0;" edge="1" parent="-6UULbU7St-G_a3xMBeo-3" source="iN0uDsX3OjaOKZK2iHJ_-34" target="GEUEoQa83Zo7Ei1XDsA4-2">
          <mxGeometry relative="1" as="geometry" />
        </mxCell>
        <mxCell id="iN0uDsX3OjaOKZK2iHJ_-34" value="Usuario" style="shape=umlActor;verticalLabelPosition=bottom;verticalAlign=top;html=1;outlineConnect=0;" parent="-6UULbU7St-G_a3xMBeo-3" vertex="1">
          <mxGeometry y="202" width="30" height="60" as="geometry" />
        </mxCell>
        <mxCell id="iN0uDsX3OjaOKZK2iHJ_-35" value="Crear cuenta" style="ellipse;whiteSpace=wrap;html=1;fillColor=#dae8fc;strokeColor=#6c8ebf;" parent="-6UULbU7St-G_a3xMBeo-3" vertex="1">
          <mxGeometry x="100" y="180" width="90" height="50" as="geometry" />
        </mxCell>
        <mxCell id="iN0uDsX3OjaOKZK2iHJ_-36" value="Registrarte" style="ellipse;whiteSpace=wrap;html=1;fillColor=#dae8fc;strokeColor=#6c8ebf;" parent="-6UULbU7St-G_a3xMBeo-3" vertex="1">
          <mxGeometry x="110" y="52" width="90" height="50" as="geometry" />
        </mxCell>
        <mxCell id="iN0uDsX3OjaOKZK2iHJ_-37" value="Editar perfil" style="ellipse;whiteSpace=wrap;html=1;fillColor=#dae8fc;strokeColor=#6c8ebf;" parent="-6UULbU7St-G_a3xMBeo-3" vertex="1">
          <mxGeometry x="280" y="52" width="90" height="50" as="geometry" />
        </mxCell>
        <mxCell id="iN0uDsX3OjaOKZK2iHJ_-38" value="Añadir amigos" style="ellipse;whiteSpace=wrap;html=1;fillColor=#dae8fc;strokeColor=#6c8ebf;" parent="-6UULbU7St-G_a3xMBeo-3" vertex="1">
          <mxGeometry x="240" y="260" width="90" height="50" as="geometry" />
        </mxCell>
        <mxCell id="iN0uDsX3OjaOKZK2iHJ_-40" value="Chatear con otros usuarios" style="ellipse;whiteSpace=wrap;html=1;fillColor=#dae8fc;strokeColor=#6c8ebf;" parent="-6UULbU7St-G_a3xMBeo-3" vertex="1">
          <mxGeometry x="240" y="192" width="90" height="50" as="geometry" />
        </mxCell>
        <mxCell id="iN0uDsX3OjaOKZK2iHJ_-41" value="Elegir clase" style="ellipse;whiteSpace=wrap;html=1;fillColor=#dae8fc;strokeColor=#6c8ebf;" parent="-6UULbU7St-G_a3xMBeo-3" vertex="1">
          <mxGeometry x="245" y="330" width="90" height="50" as="geometry" />
        </mxCell>
        <mxCell id="iN0uDsX3OjaOKZK2iHJ_-42" value="Pelear con otros usuarios" style="ellipse;whiteSpace=wrap;html=1;fillColor=#dae8fc;strokeColor=#6c8ebf;" parent="-6UULbU7St-G_a3xMBeo-3" vertex="1">
          <mxGeometry x="380" y="330" width="90" height="50" as="geometry" />
        </mxCell>
        <mxCell id="iN0uDsX3OjaOKZK2iHJ_-43" value="Eliminar cuenta" style="ellipse;whiteSpace=wrap;html=1;fillColor=#dae8fc;strokeColor=#6c8ebf;" parent="-6UULbU7St-G_a3xMBeo-3" vertex="1">
          <mxGeometry x="240" y="120" width="90" height="50" as="geometry" />
        </mxCell>
        <mxCell id="iN0uDsX3OjaOKZK2iHJ_-44" value="Reportar usuarios" style="ellipse;whiteSpace=wrap;html=1;fillColor=#dae8fc;strokeColor=#6c8ebf;" parent="-6UULbU7St-G_a3xMBeo-3" vertex="1">
          <mxGeometry x="245" y="410" width="90" height="50" as="geometry" />
        </mxCell>
        <mxCell id="iN0uDsX3OjaOKZK2iHJ_-54" value="&amp;lt;&amp;lt;extend&amp;gt;&amp;gt;" style="edgeStyle=none;html=1;startArrow=open;endArrow=none;startSize=12;verticalAlign=bottom;dashed=1;labelBackgroundColor=none;rounded=0;entryX=0;entryY=0.5;entryDx=0;entryDy=0;exitX=1;exitY=0.5;exitDx=0;exitDy=0;" parent="-6UULbU7St-G_a3xMBeo-3" source="iN0uDsX3OjaOKZK2iHJ_-41" target="iN0uDsX3OjaOKZK2iHJ_-42" edge="1">
          <mxGeometry width="160" relative="1" as="geometry">
            <mxPoint x="280" y="322" as="sourcePoint" />
            <mxPoint x="440" y="322" as="targetPoint" />
          </mxGeometry>
        </mxCell>
        <mxCell id="iN0uDsX3OjaOKZK2iHJ_-55" value="&amp;lt;&amp;lt;extend&amp;gt;&amp;gt;" style="edgeStyle=none;html=1;startArrow=open;endArrow=none;startSize=12;verticalAlign=bottom;dashed=1;labelBackgroundColor=none;rounded=0;entryX=0;entryY=0.5;entryDx=0;entryDy=0;exitX=0;exitY=0;exitDx=0;exitDy=0;" parent="-6UULbU7St-G_a3xMBeo-3" source="iN0uDsX3OjaOKZK2iHJ_-35" target="iN0uDsX3OjaOKZK2iHJ_-36" edge="1">
          <mxGeometry width="160" relative="1" as="geometry">
            <mxPoint x="280" y="322" as="sourcePoint" />
            <mxPoint x="440" y="322" as="targetPoint" />
          </mxGeometry>
        </mxCell>
        <mxCell id="iN0uDsX3OjaOKZK2iHJ_-57" value="&amp;lt;&amp;lt;extend&amp;gt;&amp;gt;" style="edgeStyle=none;html=1;startArrow=open;endArrow=none;startSize=12;verticalAlign=bottom;dashed=1;labelBackgroundColor=none;rounded=0;entryX=0;entryY=0.5;entryDx=0;entryDy=0;exitX=1;exitY=0.5;exitDx=0;exitDy=0;" parent="-6UULbU7St-G_a3xMBeo-3" source="iN0uDsX3OjaOKZK2iHJ_-35" target="iN0uDsX3OjaOKZK2iHJ_-43" edge="1">
          <mxGeometry width="160" relative="1" as="geometry">
            <mxPoint x="190" y="160" as="sourcePoint" />
            <mxPoint x="440" y="322" as="targetPoint" />
          </mxGeometry>
        </mxCell>
        <mxCell id="iN0uDsX3OjaOKZK2iHJ_-61" style="edgeStyle=orthogonalEdgeStyle;rounded=0;orthogonalLoop=1;jettySize=auto;html=1;exitX=0.5;exitY=0;exitDx=0;exitDy=0;exitPerimeter=0;" parent="-6UULbU7St-G_a3xMBeo-3" source="iN0uDsX3OjaOKZK2iHJ_-58" target="iN0uDsX3OjaOKZK2iHJ_-34" edge="1">
          <mxGeometry relative="1" as="geometry" />
        </mxCell>
        <mxCell id="iN0uDsX3OjaOKZK2iHJ_-63" style="edgeStyle=orthogonalEdgeStyle;rounded=0;orthogonalLoop=1;jettySize=auto;html=1;exitX=1;exitY=0.3333333333333333;exitDx=0;exitDy=0;exitPerimeter=0;entryX=0;entryY=0.5;entryDx=0;entryDy=0;" parent="-6UULbU7St-G_a3xMBeo-3" source="iN0uDsX3OjaOKZK2iHJ_-58" target="iN0uDsX3OjaOKZK2iHJ_-62" edge="1">
          <mxGeometry relative="1" as="geometry" />
        </mxCell>
        <mxCell id="iN0uDsX3OjaOKZK2iHJ_-58" value="Espectador" style="shape=umlActor;verticalLabelPosition=bottom;verticalAlign=top;html=1;outlineConnect=0;" parent="-6UULbU7St-G_a3xMBeo-3" vertex="1">
          <mxGeometry y="572" width="30" height="70" as="geometry" />
        </mxCell>
        <mxCell id="iN0uDsX3OjaOKZK2iHJ_-62" value="Visualizar el combate de otros usuarios" style="ellipse;whiteSpace=wrap;html=1;fillColor=#ffe6cc;strokeColor=#d79b00;" parent="-6UULbU7St-G_a3xMBeo-3" vertex="1">
          <mxGeometry x="260" y="494" width="110" height="58" as="geometry" />
        </mxCell>
        <mxCell id="tbuorbMZUSvYoukiROc6-16" style="edgeStyle=orthogonalEdgeStyle;rounded=0;orthogonalLoop=1;jettySize=auto;html=1;exitX=0;exitY=0.3333333333333333;exitDx=0;exitDy=0;exitPerimeter=0;entryX=1;entryY=0.5;entryDx=0;entryDy=0;" edge="1" parent="-6UULbU7St-G_a3xMBeo-3" source="iN0uDsX3OjaOKZK2iHJ_-64" target="iN0uDsX3OjaOKZK2iHJ_-69">
          <mxGeometry relative="1" as="geometry" />
        </mxCell>
        <mxCell id="tbuorbMZUSvYoukiROc6-17" style="edgeStyle=orthogonalEdgeStyle;rounded=0;orthogonalLoop=1;jettySize=auto;html=1;exitX=0.25;exitY=0.1;exitDx=0;exitDy=0;exitPerimeter=0;entryX=1;entryY=0.5;entryDx=0;entryDy=0;" edge="1" parent="-6UULbU7St-G_a3xMBeo-3" source="iN0uDsX3OjaOKZK2iHJ_-64" target="iN0uDsX3OjaOKZK2iHJ_-68">
          <mxGeometry relative="1" as="geometry" />
        </mxCell>
        <mxCell id="tbuorbMZUSvYoukiROc6-18" style="edgeStyle=orthogonalEdgeStyle;rounded=0;orthogonalLoop=1;jettySize=auto;html=1;exitX=0.5;exitY=0;exitDx=0;exitDy=0;exitPerimeter=0;entryX=1;entryY=0.5;entryDx=0;entryDy=0;" edge="1" parent="-6UULbU7St-G_a3xMBeo-3" source="iN0uDsX3OjaOKZK2iHJ_-64" target="iN0uDsX3OjaOKZK2iHJ_-67">
          <mxGeometry relative="1" as="geometry" />
        </mxCell>
        <mxCell id="tbuorbMZUSvYoukiROc6-19" style="edgeStyle=orthogonalEdgeStyle;rounded=0;orthogonalLoop=1;jettySize=auto;html=1;exitX=0;exitY=1;exitDx=0;exitDy=0;exitPerimeter=0;entryX=1;entryY=0.5;entryDx=0;entryDy=0;" edge="1" parent="-6UULbU7St-G_a3xMBeo-3" source="iN0uDsX3OjaOKZK2iHJ_-64" target="iN0uDsX3OjaOKZK2iHJ_-70">
          <mxGeometry relative="1" as="geometry" />
        </mxCell>
        <mxCell id="tbuorbMZUSvYoukiROc6-20" style="edgeStyle=orthogonalEdgeStyle;rounded=0;orthogonalLoop=1;jettySize=auto;html=1;exitX=1;exitY=1;exitDx=0;exitDy=0;exitPerimeter=0;entryX=1;entryY=0.5;entryDx=0;entryDy=0;" edge="1" parent="-6UULbU7St-G_a3xMBeo-3" source="iN0uDsX3OjaOKZK2iHJ_-64" target="iN0uDsX3OjaOKZK2iHJ_-71">
          <mxGeometry relative="1" as="geometry" />
        </mxCell>
        <mxCell id="iN0uDsX3OjaOKZK2iHJ_-64" value="Administrador" style="shape=umlActor;verticalLabelPosition=bottom;verticalAlign=top;html=1;outlineConnect=0;" parent="-6UULbU7St-G_a3xMBeo-3" vertex="1">
          <mxGeometry x="720" y="312" width="30" height="60" as="geometry" />
        </mxCell>
        <mxCell id="iN0uDsX3OjaOKZK2iHJ_-67" value="Aprobar o reportar chats de usuario " style="ellipse;whiteSpace=wrap;html=1;fillColor=#d5e8d4;strokeColor=#82b366;" parent="-6UULbU7St-G_a3xMBeo-3" vertex="1">
          <mxGeometry x="500" y="82" width="90" height="50" as="geometry" />
        </mxCell>
        <mxCell id="iN0uDsX3OjaOKZK2iHJ_-68" value="Suspender cuentas de usuarios" style="ellipse;whiteSpace=wrap;html=1;fillColor=#d5e8d4;strokeColor=#82b366;" parent="-6UULbU7St-G_a3xMBeo-3" vertex="1">
          <mxGeometry x="495" y="192" width="90" height="50" as="geometry" />
        </mxCell>
        <mxCell id="iN0uDsX3OjaOKZK2iHJ_-69" value="Generar reportes de actividad" style="ellipse;whiteSpace=wrap;html=1;fillColor=#d5e8d4;strokeColor=#82b366;" parent="-6UULbU7St-G_a3xMBeo-3" vertex="1">
          <mxGeometry x="490" y="312" width="90" height="50" as="geometry" />
        </mxCell>
        <mxCell id="iN0uDsX3OjaOKZK2iHJ_-70" value="Acceder a el panel de administracion" style="ellipse;whiteSpace=wrap;html=1;fillColor=#d5e8d4;strokeColor=#82b366;" parent="-6UULbU7St-G_a3xMBeo-3" vertex="1">
          <mxGeometry x="495" y="442" width="90" height="50" as="geometry" />
        </mxCell>
        <mxCell id="iN0uDsX3OjaOKZK2iHJ_-71" value="Modificar o eliminar cuentas de usuario en caso de mal uso." style="ellipse;whiteSpace=wrap;html=1;fillColor=#d5e8d4;strokeColor=#82b366;" parent="-6UULbU7St-G_a3xMBeo-3" vertex="1">
          <mxGeometry x="450" y="552" width="140" height="68" as="geometry" />
        </mxCell>
        <mxCell id="-6UULbU7St-G_a3xMBeo-2" value="Fate-duel" style="text;html=1;align=center;verticalAlign=middle;resizable=0;points=[];autosize=1;strokeColor=none;fillColor=none;" parent="-6UULbU7St-G_a3xMBeo-3" vertex="1">
          <mxGeometry x="335" width="70" height="30" as="geometry" />
        </mxCell>
        <mxCell id="GEUEoQa83Zo7Ei1XDsA4-2" value="Iniciar sesión" style="ellipse;whiteSpace=wrap;html=1;fillColor=#dae8fc;strokeColor=#6c8ebf;" parent="-6UULbU7St-G_a3xMBeo-3" vertex="1">
          <mxGeometry x="100" y="290" width="90" height="50" as="geometry" />
        </mxCell>
        <mxCell id="tbuorbMZUSvYoukiROc6-7" value="&amp;lt;&amp;lt;extend&amp;gt;&amp;gt;" style="edgeStyle=none;html=1;startArrow=open;endArrow=none;startSize=12;verticalAlign=bottom;dashed=1;labelBackgroundColor=none;rounded=0;exitX=1;exitY=0.5;exitDx=0;exitDy=0;entryX=0;entryY=0.5;entryDx=0;entryDy=0;" edge="1" parent="-6UULbU7St-G_a3xMBeo-3" source="GEUEoQa83Zo7Ei1XDsA4-2" target="iN0uDsX3OjaOKZK2iHJ_-41">
          <mxGeometry width="160" relative="1" as="geometry">
            <mxPoint x="280" y="370" as="sourcePoint" />
            <mxPoint x="440" y="370" as="targetPoint" />
          </mxGeometry>
        </mxCell>
        <mxCell id="tbuorbMZUSvYoukiROc6-8" value="&amp;lt;&amp;lt;extend&amp;gt;&amp;gt;" style="edgeStyle=none;html=1;startArrow=open;endArrow=none;startSize=12;verticalAlign=bottom;dashed=1;labelBackgroundColor=none;rounded=0;entryX=0;entryY=0.5;entryDx=0;entryDy=0;exitX=1;exitY=1;exitDx=0;exitDy=0;" edge="1" parent="-6UULbU7St-G_a3xMBeo-3" source="GEUEoQa83Zo7Ei1XDsA4-2" target="iN0uDsX3OjaOKZK2iHJ_-44">
          <mxGeometry width="160" relative="1" as="geometry">
            <mxPoint x="228.18" y="460" as="sourcePoint" />
            <mxPoint x="159.99980515339456" y="357.6776695296635" as="targetPoint" />
          </mxGeometry>
        </mxCell>
        <mxCell id="tbuorbMZUSvYoukiROc6-9" value="&amp;lt;&amp;lt;extend&amp;gt;&amp;gt;" style="edgeStyle=none;html=1;startArrow=open;endArrow=none;startSize=12;verticalAlign=bottom;dashed=1;labelBackgroundColor=none;rounded=0;entryX=0;entryY=0.5;entryDx=0;entryDy=0;exitX=1;exitY=0;exitDx=0;exitDy=0;" edge="1" parent="-6UULbU7St-G_a3xMBeo-3" source="GEUEoQa83Zo7Ei1XDsA4-2" target="iN0uDsX3OjaOKZK2iHJ_-38">
          <mxGeometry width="160" relative="1" as="geometry">
            <mxPoint x="255" y="445" as="sourcePoint" />
            <mxPoint x="187" y="343" as="targetPoint" />
          </mxGeometry>
        </mxCell>
        <mxCell id="tbuorbMZUSvYoukiROc6-10" value="&amp;lt;&amp;lt;extend&amp;gt;&amp;gt;" style="edgeStyle=none;html=1;startArrow=open;endArrow=none;startSize=12;verticalAlign=bottom;dashed=1;labelBackgroundColor=none;rounded=0;entryX=0;entryY=0.5;entryDx=0;entryDy=0;exitX=0.5;exitY=0;exitDx=0;exitDy=0;" edge="1" parent="-6UULbU7St-G_a3xMBeo-3" source="GEUEoQa83Zo7Ei1XDsA4-2" target="iN0uDsX3OjaOKZK2iHJ_-40">
          <mxGeometry width="160" relative="1" as="geometry">
            <mxPoint x="280" y="370" as="sourcePoint" />
            <mxPoint x="440" y="370" as="targetPoint" />
          </mxGeometry>
        </mxCell>
        <mxCell id="tbuorbMZUSvYoukiROc6-14" value="&amp;lt;&amp;lt;extend&amp;gt;&amp;gt;" style="edgeStyle=none;html=1;startArrow=open;endArrow=none;startSize=12;verticalAlign=bottom;dashed=1;labelBackgroundColor=none;rounded=0;" edge="1" parent="-6UULbU7St-G_a3xMBeo-3">
          <mxGeometry width="160" relative="1" as="geometry">
            <mxPoint x="200" y="80" as="sourcePoint" />
            <mxPoint x="280" y="80" as="targetPoint" />
          </mxGeometry>
        </mxCell>
        <mxCell id="tbuorbMZUSvYoukiROc6-15" value="&amp;lt;&amp;lt;extend&amp;gt;&amp;gt;" style="edgeStyle=none;html=1;endArrow=open;verticalAlign=bottom;dashed=1;labelBackgroundColor=none;rounded=0;exitX=0;exitY=1;exitDx=0;exitDy=0;entryX=0;entryY=0;entryDx=0;entryDy=0;" edge="1" parent="-6UULbU7St-G_a3xMBeo-3" source="iN0uDsX3OjaOKZK2iHJ_-35" target="GEUEoQa83Zo7Ei1XDsA4-2">
          <mxGeometry width="160" relative="1" as="geometry">
            <mxPoint x="40" y="260" as="sourcePoint" />
            <mxPoint x="200" y="260" as="targetPoint" />
          </mxGeometry>
        </mxCell>
      </root>
    </mxGraphModel>
  </diagram>
</mxfile>
